<?xml version="1.0" standalone="no"?> <!DOCTYPE svg PUBLIC "-//W3C//DTD SVG 1.0//EN" "http://www.w3.org/TR/2001/REC-SVG-20010904/DTD/svg10.dtd" > <svg xmlns="http://www.w3.org/2000/svg" width="100%" height="100%">
<defs >
<font id="metaitalic" horiz-adv-x="897" ><font-face
    font-family="Meta"
    units-per-em="2048"
    panose-1="0 0 0 0 0 0 0 0 0 0"
    ascent="1894"
    descent="-426"
    alphabetic="0" />
<missing-glyph horiz-adv-x="1024" />
<glyph unicode=" " glyph-name="space" horiz-adv-x="681" />
<glyph unicode="!" glyph-name="exclam" horiz-adv-x="544" d="M571 1432L313 406H190L365 1405L571 1432ZM317 115Q317 61 281 24T193 -14T105 23T68 113Q68 165 104 201T193 238Q244 238 280 202T317 115Z" />
<glyph unicode="&quot;" glyph-name="quotedbl" horiz-adv-x="1062" d="M963 1450L858 958H711L815 1450H963ZM662 1450L557 958H410L514 1450H662Z" />
<glyph unicode="#" glyph-name="numbersign" horiz-adv-x="1138" d="M1192 1018L1163 883H944L836 571H1036L1006 436H784L631 0H494L647 436H389L236 0H98L252 436H51L82 571H303L410 883H209L238 1018H459L612 1450H750L596 1018H854L1008 1450H1145L991 1018H1192ZM807
883H549L440 571H698L807 883Z" />
<glyph unicode="$" glyph-name="dollar" horiz-adv-x="1134" d="M1147 1315L1059 1190Q989 1241 929 1265T797 1296L690 799L758 770Q884 716 936 632T989 418Q989 248 862 127T514 -20L473 -219H352L393 -27Q186 -24 25 84L106 217Q184 165 256 140T422 111L543
676L492 696Q366 749 309 826T252 1028Q252 1192 379 1304T705 1434L741 1604H862L825 1434Q1012 1417 1147 1315ZM676 1292Q564 1275 496 1213T428 1063Q428 982 460 936T580 848L676 1292ZM813 393Q813 476 779 529T653 627L545 119Q669 144 741 218T813 393Z"
/>
<glyph unicode="%" glyph-name="percent" horiz-adv-x="1701" d="M864 1169Q864 963 747 839T449 715Q326 715 255 779T184 969Q184 1159 301 1287T596 1415Q726 1415 795 1347T864 1169ZM1464 1395L485 0H350L1329 1395H1464ZM1622 434Q1622 228 1505 104T1206
-20Q1084 -20 1013 43T942 233Q942 423 1059 551T1354 680Q1484 680 1553 612T1622 434ZM725 1151Q725 1303 569 1303Q448 1303 387 1213T326 973Q326 894 364 861T479 827Q595 827 660 918T725 1151ZM1483 416Q1483 567 1327 567Q1206 567 1145 477T1083 238Q1083
160 1122 126T1237 92Q1353 92 1418 183T1483 416Z" />
<glyph unicode="&amp;" glyph-name="ampersand" horiz-adv-x="1427" d="M1282 2H1069L963 133Q885 58 769 14T530 -31Q343 -31 233 50T123 270Q123 432 242 551Q256 565 271 577T306 603T338 625T378 647T414 665T455 686T494 705Q358 850 358 973Q358 1050 400
1127T516 1257Q634 1343 797 1343Q938 1343 1025 1273T1112 1094Q1112 973 1036 887Q970 808 872 758L741 690L995 369Q1020 397 1034 428T1069 530L1104 678L1245 682Q1219 548 1186 459Q1147 352 1079 258L1282 2ZM936 1079Q936 1146 892 1186T774 1227Q685 1227
608 1165Q581 1144 560 1106T539 1032Q539 975 549 942T596 862Q623 827 668 778Q826 846 889 932Q936 998 936 1079ZM895 225L573 621Q446 567 373 481Q301 397 301 283Q301 195 367 145T557 94Q656 94 748 131T895 225Z" />
<glyph unicode="&apos;" glyph-name="quotesingle" horiz-adv-x="569" d="M565 1450L461 958H313L418 1450H565Z" />
<glyph unicode="(" glyph-name="parenleft" horiz-adv-x="696" d="M920 1477Q795 1413 715 1351T584 1210Q456 1018 381 662Q328 418 328 242Q328 96 362 -6Q413 -151 545 -240L485 -317Q338 -243 254 -96T170 254Q170 420 215 657Q270 913 352 1077T555 1362Q708
1512 889 1577L920 1477Z" />
<glyph unicode=")" glyph-name="parenright" horiz-adv-x="696" d="M549 1010Q549 845 504 606Q449 351 367 186T164 -98Q11 -248 -170 -313L-201 -213Q-76 -149 4 -87T135 53Q263 245 338 602Q391 846 391 1022Q391 1169 356 1270Q307 1415 174 1503L233 1581Q380
1507 464 1360T549 1010Z" />
<glyph unicode="*" glyph-name="asterisk" horiz-adv-x="909" d="M969 1124L680 1026L862 782L762 705L578 956L399 705L297 782L475 1026L186 1124L225 1243L516 1145V1450H639V1145L930 1243L969 1124Z" />
<glyph unicode="+" glyph-name="plus" horiz-adv-x="1024" d="M973 586L942 438H578L500 74H352L430 438H66L96 586H461L539 950H686L608 586H973Z" />
<glyph unicode="," glyph-name="comma" horiz-adv-x="546" d="M360 102Q360 35 329 -36T240 -162Q165 -238 45 -293L-8 -203Q56 -175 102 -126T168 -20Q122 -20 91 17T61 106Q61 173 104 214T215 256Q277 256 318 214T360 102Z" />
<glyph unicode="-" glyph-name="hyphen" horiz-adv-x="618" d="M539 625L506 469H115L147 625H539Z" />
<glyph unicode="." glyph-name="period" horiz-adv-x="544" d="M352 115Q352 57 312 15T215 -27Q157 -27 118 14T78 115Q78 171 117 210T213 250Q271 250 311 211T352 115Z" />
<glyph unicode="/" glyph-name="slash" horiz-adv-x="546" d="M834 1550L-90 -303H-225L698 1550H834Z" />
<glyph unicode="0" glyph-name="zero" horiz-adv-x="1095" d="M1016 500Q960 239 809 102T446 -35Q228 -35 137 110T100 508Q154 766 306 904T670 1042Q888 1042 979 897T1016 500ZM842 473Q891 703 844 806T641 909Q352 909 274 535Q225 304 272 201T475 98Q764
98 842 473Z" />
<glyph unicode="1" glyph-name="one" horiz-adv-x="827" d="M692 1038L500 129H688L659 0H121L150 129H338L489 844Q315 743 188 696L166 801L567 1038H692Z" />
<glyph unicode="2" glyph-name="two" horiz-adv-x="1095" d="M991 807Q991 737 947 656T823 508Q669 374 479 256L266 123Q364 131 479 131H897L836 0H53L82 129Q178 190 248 240L438 375Q649 523 709 588Q793 678 793 762Q793 845 748 883T610 922Q542 922 473
893T281 786L264 776L211 870Q346 971 457 1016T680 1061Q819 1061 905 990T991 807Z" />
<glyph unicode="3" glyph-name="three" horiz-adv-x="1095" d="M969 721Q946 612 863 531T657 418Q671 414 672 414Q730 393 752 382T799 346Q908 241 874 84Q845 -58 725 -166Q505 -373 78 -373Q16 -373 -23 -367L-37 -250Q2 -256 68 -256Q226 -256 335 -234T537
-141Q659 -50 698 98Q716 183 682 254T575 348Q534 362 495 365T332 369H311L336 483H354Q519 485 563 489Q606 497 635 508Q691 529 734 582T791 700Q813 805 759 863T594 922Q501 922 391 874Q336 847 260 803L244 795L188 885Q248 930 337 973T502 1036Q571
1055 651 1055Q815 1055 907 957T969 721Z" />
<glyph unicode="4" glyph-name="four" horiz-adv-x="1095" d="M946 139L918 10H805L750 12Q745 -20 739 -47L676 -350L508 -397L578 -70L596 12Q541 10 514 10H-14L12 137L680 1059H858L305 293Q281 260 250 220T200 155L180 131Q221 137 260 137H623L637 197Q648
251 684 381L766 668L901 707L813 295L776 135Q815 139 846 139H946Z" />
<glyph unicode="5" glyph-name="five" horiz-adv-x="1095" d="M956 1016L903 881H461L340 483Q428 494 487 494Q667 494 768 378T831 84Q800 -64 693 -172T442 -331T135 -383Q59 -383 -10 -362L-14 -240Q43 -268 133 -268Q322 -268 472 -169T655 84Q684 216 618
293T408 371Q251 371 137 326L350 1016H956Z" />
<glyph unicode="6" glyph-name="six" horiz-adv-x="1095" d="M1069 1300Q894 1249 746 1159T508 961Q416 852 354 709Q491 815 676 815Q811 815 908 722T1006 479Q1006 329 933 210T738 28T473 -35Q303 -35 200 79T96 377Q96 557 177 736T416 1065Q563 1204 718
1286T1049 1417L1069 1300ZM821 467Q821 581 766 636T616 692Q478 692 317 584Q290 506 282 462T274 360Q274 240 335 165T500 90Q643 90 732 193T821 467Z" />
<glyph unicode="7" glyph-name="seven" horiz-adv-x="1095" d="M1071 1014L1049 858L870 649Q854 629 808 572T745 492T693 426T631 342T571 256Q483 127 390 -38T250 -328L43 -379Q72 -293 96 -241T176 -92Q287 104 442 324Q704 698 911 883Q793 879 721 879H180L240
1014H1071Z" />
<glyph unicode="8" glyph-name="eight" horiz-adv-x="1095" d="M1083 1051Q1047 871 831 760Q770 729 741 719L836 672Q922 628 963 539T983 348Q948 182 806 74T457 -35Q329 -35 230 18T85 159T61 344Q76 417 114 478T204 584T311 658T428 711Q211 825 254 1036Q287
1188 418 1275T756 1362Q922 1362 1016 1269T1083 1051ZM926 1038Q946 1132 888 1188T711 1245Q592 1245 513 1195T414 1051Q404 1007 413 961T449 887Q517 813 633 770Q770 836 840 900T926 1038ZM813 309Q827 370 822 414T788 494Q760 528 705 562T522 659Q462
630 421 605T337 544T267 461T227 354Q201 233 269 160T473 86Q603 86 697 145T813 309Z" />
<glyph unicode="9" glyph-name="nine" horiz-adv-x="1095" d="M1024 639Q1024 455 946 270T713 -61Q561 -205 372 -297T-6 -422L-70 -319Q119 -290 313 -183T616 55Q653 98 668 118T707 177T754 270Q617 164 432 164Q300 164 207 269T113 526Q113 639 156 738T272
905T442 1012T647 1051Q818 1051 921 937T1024 639ZM846 655Q846 776 785 851T621 926Q478 926 388 819T297 539Q297 421 349 354T492 287Q630 287 791 395Q846 553 846 655Z" />
<glyph unicode=":" glyph-name="colon" horiz-adv-x="618" d="M508 762Q508 704 467 663T371 621Q313 621 273 662T233 762Q233 819 272 858T369 897Q427 897 467 858T508 762ZM371 115Q371 57 330 15T233 -27Q176 -27 136 14T96 115Q96 171 135 210T231 250Q289
250 330 211T371 115Z" />
<glyph unicode=";" glyph-name="semicolon" horiz-adv-x="620" d="M498 762Q498 704 457 663T360 621Q302 621 263 662T223 762Q223 819 262 858T358 897Q417 897 457 858T498 762ZM385 102Q385 35 354 -36T264 -162Q229 -199 173 -235T70 -293L16 -203Q80 -175
127 -126T193 -20Q147 -20 116 17T86 106Q86 173 129 214T240 256Q302 256 343 214T385 102Z" />
<glyph unicode="&lt;" glyph-name="less" horiz-adv-x="663" d="M698 1044L250 600L502 170L354 88L55 614L580 1141L698 1044Z" />
<glyph unicode="=" glyph-name="equal" horiz-adv-x="1363" d="M1294 848L1266 713H197L225 848H1294ZM1227 528L1198 393H129L158 528H1227Z" />
<glyph unicode="&gt;" glyph-name="greater" horiz-adv-x="663" d="M655 614L131 88L12 184L461 629L209 1059L356 1141L655 614Z" />
<glyph unicode="?" glyph-name="question" horiz-adv-x="731" d="M856 1169Q856 985 600 815Q488 741 444 658T399 455H262Q259 599 311 709T498 903Q688 1021 688 1130Q688 1206 645 1245T522 1284Q392 1284 238 1190L184 1298Q370 1423 555 1423Q704 1423 780
1356T856 1169ZM397 111Q397 57 361 20T272 -18T184 19T147 109Q147 161 183 197T272 233T360 197T397 111Z" />
<glyph unicode="@" glyph-name="at" horiz-adv-x="1638" d="M1546 860Q1546 758 1515 663T1433 498T1319 375T1191 295T1067 268Q1012 268 976 302T936 403H932Q875 338 817 303T676 268Q548 268 469 359T387 586Q388 693 422 796T517 982T668 1114T864 1165Q940
1165 1000 1125T1092 997H1096L1133 1126H1266L1094 547Q1078 488 1075 444Q1075 403 1124 403Q1189 403 1255 466T1366 635T1411 850Q1411 967 1364 1067T1240 1234T1062 1338T854 1376Q681 1376 535 1287T306 1049T223 725Q223 590 274 469T411 261T613 125T854
74Q1006 74 1147 141T1372 322H1501Q1402 155 1228 59T854 -37Q696 -37 554 23T309 184T148 427T88 725Q89 934 192 1109T472 1386T856 1487Q1043 1487 1200 1408T1452 1184T1546 860ZM1030 838Q1030 915 980 972T864 1030Q795 1030 732 988T627 882T561 742T537
600Q535 515 585 459T713 403Q797 403 872 477T989 652T1030 838Z" />
<glyph unicode="A" glyph-name="A" horiz-adv-x="1169" d="M1059 0H877L836 432H311L84 0H-94L674 1405H893L1059 0ZM821 569L774 1040L754 1257L639 1051L387 569H821Z" />
<glyph unicode="B" glyph-name="B" horiz-adv-x="1208" d="M1178 1098Q1178 967 1097 876T858 743Q981 721 1039 643T1098 444Q1098 354 1051 269T918 113Q836 47 739 24T449 0H86L385 1405H748Q870 1405 956 1382T1090 1316T1157 1219T1178 1098ZM989 1069Q989
1165 930 1214T735 1264H516L418 801H672Q814 801 895 862Q989 938 989 1069ZM913 442Q911 487 899 532T864 600Q830 636 782 649T637 662H389L276 137H553Q721 137 811 211Q857 247 885 309T913 442Z" />
<glyph unicode="C" glyph-name="C" horiz-adv-x="1097" d="M1208 1307L1114 1202Q1060 1248 1002 1268T866 1288Q745 1288 643 1227T465 1047Q388 930 344 773T299 477Q299 307 384 213T631 119Q709 119 777 140T924 209L989 92Q789 -23 573 -23Q365 -23 245 115T125
485Q125 669 191 858T379 1184Q480 1297 614 1360T885 1423Q1081 1423 1208 1307Z" />
<glyph unicode="D" glyph-name="D" horiz-adv-x="1280" d="M1227 887Q1227 704 1139 490T932 170Q832 79 720 40T449 0H82L379 1393H680Q838 1393 924 1371T1085 1284Q1227 1164 1227 887ZM1044 866Q1044 961 1031 1021T987 1128Q940 1205 873 1230T686 1255H518L281
139H430Q717 139 836 285Q934 406 989 571T1044 866Z" />
<glyph unicode="E" glyph-name="E" horiz-adv-x="1060" d="M1151 1395L1100 1255H524L426 801H907L877 655H395L287 145H905L874 0H86L383 1395H1151Z" />
<glyph unicode="F" glyph-name="F" horiz-adv-x="952" d="M1118 1399L1063 1260H520L424 805H874L846 668H395L252 0H82L379 1399H1118Z" />
<glyph unicode="G" glyph-name="G" horiz-adv-x="1243" d="M1243 1286L1159 1182Q1091 1237 1022 1259T868 1282Q651 1282 520 1120Q426 1004 368 820T309 473Q309 302 403 208T653 113Q788 113 889 168L979 596H696V735H1167L1028 80Q942 31 829 2T608 -27Q386
-27 257 114T127 475Q127 684 202 884T416 1223Q516 1323 632 1370T893 1417Q1109 1417 1243 1286Z" />
<glyph unicode="H" glyph-name="H" horiz-adv-x="1284" d="M1298 1405L999 0H831L977 680H385L240 0H76L375 1405H539L414 817H1006L1130 1405H1298Z" />
<glyph unicode="I" glyph-name="I" horiz-adv-x="548" d="M553 1405L254 0H90L389 1405H553Z" />
<glyph unicode="J" glyph-name="J" horiz-adv-x="546" d="M563 1405L315 240Q309 208 296 153T281 90Q254 -4 197 -82Q98 -206 -80 -262L-139 -158Q-8 -108 57 -20Q85 15 105 71T147 236L395 1405H563Z" />
<glyph unicode="K" glyph-name="K" horiz-adv-x="1169" d="M1260 1358L596 731L1001 25L825 -31L403 743L1133 1450L1260 1358ZM537 1405L238 0H68L367 1405H537Z" />
<glyph unicode="L" glyph-name="L" horiz-adv-x="952" d="M836 141L782 0H82L381 1405H549L281 141H836Z" />
<glyph unicode="M" glyph-name="M" horiz-adv-x="1574" d="M1575 1405L1397 0H1229L1366 1030Q1371 1070 1381 1130T1400 1230L1407 1270Q1361 1159 1305 1049L780 0H637L571 997Q559 1211 559 1272Q510 1085 485 999L195 0H33L455 1405H700L762 487Q770 353 764
242Q812 357 864 471L1327 1405H1575Z" />
<glyph unicode="N" glyph-name="N" horiz-adv-x="1280" d="M1305 1401L1006 0H829L561 858Q489 1092 473 1194Q456 1046 412 813L246 0H72L371 1401H565L842 506Q854 462 871 389T898 264L909 213Q944 455 983 639L1139 1401H1305Z" />
<glyph unicode="O" glyph-name="O" horiz-adv-x="1353" d="M1319 954Q1319 693 1231 459T981 100Q890 30 797 2T575 -27Q361 -27 249 105T137 471Q137 695 214 908T414 1245Q508 1341 617 1385T879 1430Q1087 1430 1203 1305T1319 954ZM1137 971Q1137 1124 1067
1209T850 1294Q634 1294 514 1130Q426 1013 374 829T322 432Q322 102 612 102Q781 102 899 223Q1000 322 1068 548T1137 971Z" />
<glyph unicode="P" glyph-name="P" horiz-adv-x="1171" d="M1180 1079Q1180 817 983 662Q856 559 616 559H371L252 0H88L387 1405H752Q869 1405 954 1379T1088 1305T1158 1202T1180 1079ZM997 1040Q997 1155 929 1209T698 1264H520L399 696H635Q722 696 774 713T870
772Q933 829 965 899T997 1040Z" />
<glyph unicode="Q" glyph-name="Q" horiz-adv-x="1353" d="M1319 954Q1319 693 1231 459T981 100Q916 49 825 10Q892 -12 991 -76Q1024 -96 1081 -114T1196 -133Q1252 -133 1282 -123L1233 -233Q1189 -254 1108 -254Q1008 -254 831 -147Q740 -91 685 -66T565 -27Q356
-24 247 108T137 471Q137 698 211 906T414 1245Q508 1341 617 1385T879 1430Q1087 1430 1203 1305T1319 954ZM1137 971Q1137 1124 1067 1209T850 1294Q634 1294 514 1130Q431 1019 377 813T322 432Q322 102 612 102Q781 102 899 223Q1000 322 1068 548T1137 971Z"
/>
<glyph unicode="R" glyph-name="R" horiz-adv-x="1169" d="M1130 1077Q1130 883 996 758T668 633H647Q758 522 864 307Q940 155 981 25L834 -25Q807 42 717 238Q630 425 541 549Q504 601 474 616T387 633L252 0H84L383 1403H690Q920 1403 1025 1325T1130 1077ZM952
1047Q952 1161 889 1211T684 1262H522L412 737H561Q743 737 829 809Q952 901 952 1047Z" />
<glyph unicode="S" glyph-name="S" horiz-adv-x="1134" d="M1147 1315L1059 1190Q978 1249 909 1273T750 1298Q609 1298 521 1232T432 1063Q432 976 468 929T610 836L758 772Q883 718 936 633T989 418Q989 326 949 245T837 104T655 8T412 -27Q192 -27 25 84L106
217Q186 161 262 136T442 111Q608 111 708 191T809 393Q809 484 770 537T618 639L492 692Q366 745 309 824T252 1028Q252 1146 319 1239T505 1384T770 1436Q876 1436 974 1404T1147 1315Z" />
<glyph unicode="T" glyph-name="T" horiz-adv-x="1026" d="M1174 1405L1133 1264H752L483 0H322L590 1264H213L244 1405H1174Z" />
<glyph unicode="U" glyph-name="U" horiz-adv-x="1247" d="M1290 1405L1083 428Q1050 272 1016 203T907 78Q831 23 742 -1T532 -25Q321 -25 227 66Q139 147 139 276Q139 374 158 463L358 1405H524L334 506Q303 361 303 291Q303 209 368 164T551 119Q732 119 817
207Q858 249 879 297T922 446L1124 1405H1290Z" />
<glyph unicode="V" glyph-name="V" horiz-adv-x="1173" d="M1348 1405L567 0H401L227 1405H401L508 504Q517 422 520 326T522 190L670 483L1167 1405H1348Z" />
<glyph unicode="W" glyph-name="W" horiz-adv-x="1675" d="M1827 1405L1206 0H987L979 780Q976 993 991 1180Q908 956 836 793L496 0H279L246 1405H418L422 584Q422 430 406 156Q475 336 573 563L938 1405H1128L1137 590Q1144 292 1128 156Q1193 335 1303 590L1651
1405H1827Z" />
<glyph unicode="X" glyph-name="X" horiz-adv-x="1099" d="M1198 1405L705 754L989 0H778L561 633L100 0H-88L500 766L254 1405H444L627 897L993 1405H1198Z" />
<glyph unicode="Y" glyph-name="Y" horiz-adv-x="1099" d="M1292 1405L653 547L537 0H362L481 557L209 1405H408L559 868Q586 781 598 711Q641 777 707 868L1092 1405H1292Z" />
<glyph unicode="Z" glyph-name="Z" horiz-adv-x="991" d="M1096 1247L293 276Q260 236 178 141Q227 143 299 143H856L803 0H-35V129L786 1116Q885 1231 905 1251Q866 1249 760 1249H236L293 1391H1096V1247Z" />
<glyph unicode="[" glyph-name="bracketleft" horiz-adv-x="530" d="M612 1499L586 1376H395L61 -197H252L225 -319H-113L274 1499H612Z" />
<glyph unicode="\" glyph-name="backslash" horiz-adv-x="757" d="M641 -37L502 -88L221 1487L360 1536L641 -37Z" />
<glyph unicode="]" glyph-name="bracketright" horiz-adv-x="530" d="M690 1499L303 -319H-35L-8 -197H182L516 1376H326L352 1499H690Z" />
<glyph unicode="^" glyph-name="asciicircum" horiz-adv-x="1363" d="M1219 563H1067L852 1278L334 563H182L827 1450H950L1219 563Z" />
<glyph unicode="_" glyph-name="underscore" horiz-adv-x="1024" d="M889 -154L868 -256H-156L-135 -154H889Z" />
<glyph unicode="`" glyph-name="grave" horiz-adv-x="692" d="M770 1253L717 1157L260 1362L348 1520L770 1253Z" />
<glyph unicode="a" glyph-name="a" horiz-adv-x="1077" d="M1020 965Q987 845 967 752L879 330Q861 246 861 195T872 117T913 59L786 -39Q739 10 722 60T711 184Q657 90 565 36T356 -18Q253 -18 180 64T106 305Q106 460 163 618T319 877Q400 959 507 1004T733
1049Q901 1049 1020 965ZM842 891Q792 920 719 920Q625 920 553 885T416 772Q344 686 308 558T272 303Q272 205 311 162T426 119Q507 119 591 187T731 365L842 891Z" />
<glyph unicode="b" glyph-name="b" horiz-adv-x="1134" d="M1047 707Q1047 529 982 371T809 109Q741 44 655 10T479 -25Q373 -25 268 5T86 100Q111 182 125 254L311 1133Q330 1224 332 1308T319 1444L489 1509Q524 1391 475 1155L446 1018Q436 966 397 829Q463
922 566 982T770 1042Q907 1042 977 955T1047 707ZM870 705Q870 797 829 847T705 897Q547 897 369 668L264 172Q336 111 479 111Q535 111 599 141T700 213Q778 301 824 441T870 705Z" />
<glyph unicode="c" glyph-name="c" horiz-adv-x="878" d="M913 961L838 836Q752 907 631 907Q571 907 513 876T414 793Q358 718 314 579T270 326Q270 104 463 104Q590 104 707 215L772 113Q686 40 607 9T432 -23Q98 -23 98 324Q98 493 176 668T360 930Q502 1047
666 1047Q815 1047 913 961Z" />
<glyph unicode="d" glyph-name="d" horiz-adv-x="1134" d="M1176 1468L932 330Q914 248 914 198T924 122T965 59L827 -43Q783 1 765 49T752 176Q677 78 591 32T393 -14Q251 -14 180 73T109 328Q109 485 168 634T336 893Q406 964 503 1002T690 1040Q841 1040 915
1001L1020 1495L1176 1468ZM883 864Q834 889 795 898T686 907Q625 907 557 876T440 795Q373 721 326 579T279 319Q279 121 428 121Q524 121 614 180T778 365L883 864Z" />
<glyph unicode="e" glyph-name="e" horiz-adv-x="1024" d="M942 784Q942 660 848 571Q783 511 678 483T408 455Q371 455 281 459Q266 395 266 330Q266 227 324 169T469 111Q564 111 630 136T768 227L836 129Q756 48 664 13T422 -23Q276 -23 182 76T88 346Q88 501
146 653T313 905Q468 1049 649 1049Q791 1049 866 978T942 784ZM780 780Q780 843 742 882T625 922Q525 922 436 829T307 580Q336 578 412 578Q545 578 616 596T729 655Q780 709 780 780Z" />
<glyph unicode="f" glyph-name="f" horiz-adv-x="587" d="M895 1432L836 1311Q766 1358 684 1358Q617 1358 572 1312T508 1178L477 1012H760L688 891H455L272 -29Q245 -171 209 -262T115 -426L-16 -354Q32 -287 63 -209T117 -14L293 891H188L211 1012H315L344
1157Q383 1354 500 1432Q578 1483 694 1483Q818 1483 895 1432Z" />
<glyph unicode="g" glyph-name="g" horiz-adv-x="1134" d="M1077 961Q1046 874 1018 741L858 -6Q811 -228 688 -323T336 -418Q160 -418 -23 -326L37 -197Q117 -243 189 -263T350 -283Q509 -283 587 -229T700 -29L743 158Q668 61 585 22T385 -18Q255 -18 181 72T106
326Q106 488 173 646T344 897Q515 1051 737 1051Q850 1051 924 1031T1077 961ZM893 879Q829 909 723 909Q568 909 459 805Q388 739 334 592T279 330Q279 119 444 119Q640 119 784 365L893 879Z" />
<glyph unicode="h" glyph-name="h" horiz-adv-x="1103" d="M1004 852Q1004 811 987 731L831 0H674L819 688Q836 771 836 793Q836 847 809 875T731 903Q657 903 560 840T375 668L233 0H74L313 1126Q355 1328 324 1444L494 1509Q529 1382 473 1124L451 1018Q429
921 399 827Q484 936 590 989T795 1042Q892 1042 948 988T1004 852Z" />
<glyph unicode="i" glyph-name="i" horiz-adv-x="509" d="M561 1335Q561 1283 525 1247T436 1210T348 1246T311 1333Q311 1386 347 1423T436 1460T524 1424T561 1335ZM457 1042L236 0H66L283 1016L457 1042Z" />
<glyph unicode="j" glyph-name="j" horiz-adv-x="512" d="M567 1354Q565 1301 530 1264T442 1227T353 1263T315 1350Q317 1403 353 1441T442 1479T530 1442T567 1354ZM461 1044L244 27Q203 -162 129 -257T-86 -406L-143 -299Q-39 -255 5 -189T84 35L291 1012L461 1044Z" />
<glyph unicode="k" glyph-name="k" horiz-adv-x="1024" d="M483 1509Q499 1462 497 1367T473 1169L223 0H63L305 1135Q324 1223 327 1306T313 1444L483 1509ZM993 971L539 575L885 33L727 -31L356 590L881 1063L993 971Z" />
<glyph unicode="l" glyph-name="l" horiz-adv-x="509" d="M492 1509Q509 1437 503 1338T475 1137L281 225Q270 181 270 152Q270 102 313 102Q342 102 352 106L362 2Q309 -20 238 -20Q174 -20 138 10T102 100Q102 138 113 188L313 1137Q354 1328 322 1444L492 1509Z" />
<glyph unicode="m" glyph-name="m" horiz-adv-x="1613" d="M1520 848Q1520 816 1503 729L1348 0H1184L1335 713Q1348 770 1348 811Q1348 901 1247 901Q1188 901 1098 836T926 670L782 0H621L768 696Q788 786 788 815Q788 901 707 901Q645 901 550 838T369 666L227
0H74L229 731Q250 831 252 874T238 981L387 1051Q432 955 397 825Q585 1042 774 1042Q948 1042 948 827Q1046 940 1146 993T1331 1047Q1419 1047 1469 988T1520 848Z" />
<glyph unicode="n" glyph-name="n" horiz-adv-x="1105" d="M1004 840Q1004 814 997 774L831 0H670L817 690Q834 765 834 801Q834 851 807 877T731 903Q661 903 564 844T371 666L229 0H74L229 729Q250 826 251 875T238 981L387 1051Q401 1012 406 985T411 917T397
825Q477 931 585 986T797 1042Q891 1042 947 988T1004 840Z" />
<glyph unicode="o" glyph-name="o" horiz-adv-x="1124" d="M1022 672Q1022 475 951 314T749 59T455 -35Q289 -35 199 62T109 334Q109 534 182 696T386 950T676 1042Q848 1042 935 943T1022 672ZM846 690Q846 804 791 857T647 911Q535 911 452 833T327 623T285
324Q285 207 335 153T485 98Q599 98 682 181T806 397T846 690Z" />
<glyph unicode="p" glyph-name="p" horiz-adv-x="1128" d="M1032 713Q1032 572 983 414T854 160Q782 72 681 24T477 -25Q333 -25 236 27L145 -395L-20 -426L227 731Q248 830 248 881T233 981L383 1051Q403 1004 407 960T399 834Q476 935 577 987T770 1040Q899
1040 965 953T1032 713ZM858 702Q858 806 822 851T709 897Q630 897 541 838T371 672L264 170Q336 109 475 109Q545 109 617 148T727 244Q783 325 820 457T858 702Z" />
<glyph unicode="q" glyph-name="q" horiz-adv-x="1099" d="M1069 961Q1038 874 1010 741L770 -383L610 -416L735 158Q661 61 578 22T377 -18Q248 -18 177 71T106 326Q106 490 170 647T336 897Q507 1051 729 1051Q842 1051 916 1031T1069 961ZM885 885Q821 915
715 915Q565 915 451 805Q381 740 330 594T279 330Q279 218 317 169T436 119Q632 119 776 365L885 885Z" />
<glyph unicode="r" glyph-name="r" horiz-adv-x="669" d="M799 1036L729 862Q705 870 666 870Q521 870 367 639L231 0H76L223 692Q248 807 250 866T236 981L385 1051Q408 994 410 946T393 807Q466 916 557 981T723 1047Q760 1047 799 1036Z" />
<glyph unicode="s" glyph-name="s" horiz-adv-x="913" d="M866 983L801 860Q732 897 678 915T561 934Q459 934 395 894T330 782Q330 729 353 698T440 639L569 584Q685 534 734 473T784 326Q784 163 660 67T340 -29Q242 -29 148 -3T-12 70L53 193Q192 96 356 96Q464
96 534 143T604 268Q604 332 577 369T475 440L354 494Q248 540 202 597T156 743Q156 883 271 972T571 1061Q652 1061 731 1040T866 983Z" />
<glyph unicode="t" glyph-name="t" horiz-adv-x="659" d="M717 1022L653 897H432L305 301Q291 238 291 190Q291 135 315 113T393 90Q454 90 500 111V8Q409 -33 311 -33Q223 -33 177 10T131 133Q131 211 147 283L276 897H143L166 1022H303Q346 1189 373 1274L547
1311Q493 1159 465 1022H717Z" />
<glyph unicode="u" glyph-name="u" horiz-adv-x="1097" d="M1036 1036L883 313Q859 197 864 155T909 59L784 -43Q739 1 720 53T709 182Q526 -35 319 -35Q104 -35 104 170Q104 238 121 319L268 1012L432 1042L289 356Q270 279 270 223Q270 156 292 129T371 102Q453
102 555 170T735 362L872 1010L1036 1036Z" />
<glyph unicode="v" glyph-name="v" horiz-adv-x="987" d="M1061 1018L461 -10H303L154 1012L315 1047L403 344Q416 223 416 170H420Q450 243 506 342L881 1016L1061 1018Z" />
<glyph unicode="w" glyph-name="w" horiz-adv-x="1427" d="M1501 1018L993 -8H842L780 821H776Q750 750 733 717L373 -8H223L158 1012L319 1047L340 373V203H346Q377 276 414 350L741 1026H911L946 342Q947 317 949 281T952 219T954 193H958Q960 194 1020 334L1327
1018H1501Z" />
<glyph unicode="x" glyph-name="x" horiz-adv-x="915" d="M954 1016L557 565L827 0H627L442 434L74 0H-109L393 565L176 1016H367L496 680L762 1016H954Z" />
<glyph unicode="y" glyph-name="y" horiz-adv-x="948" d="M1026 1018L555 156Q537 124 488 32T421 -93T366 -183T301 -274T240 -332Q155 -398 41 -420L4 -311Q46 -307 96 -280T184 -217Q255 -152 315 0L250 -8Q252 43 244 164T225 358L141 1008L309 1042L379 389Q383
346 384 283T385 177V135H389L500 350L842 1018H1026Z" />
<glyph unicode="z" glyph-name="z" horiz-adv-x="878" d="M885 891L172 123H737L664 0H-27V123L686 891H207V1018H885V891Z" />
<glyph unicode="{" glyph-name="braceleft" horiz-adv-x="681" d="M819 1499L793 1376H682Q651 1376 628 1363T589 1325T564 1275T547 1214L471 854Q460 802 437 758T387 686T331 637T280 606T240 592L238 588Q255 586 273 578T313 551T348 503T366 429T358 324L283
-35Q245 -197 348 -197H459L432 -319H289Q205 -319 154 -250T129 -63L205 295Q227 400 187 464T78 528L104 651Q172 651 240 716T330 883L406 1243Q430 1359 513 1429T676 1499H819Z" />
<glyph unicode="|" glyph-name="bar" horiz-adv-x="454" d="M522 1548L184 -37H49L387 1548H522Z" />
<glyph unicode="}" glyph-name="braceright" horiz-adv-x="681" d="M651 651L625 528Q556 528 489 464T399 295L324 -63Q298 -180 218 -249T53 -319H-90L-63 -197H47Q105 -197 135 -153T182 -35L258 324Q270 381 294 428T344 503T400 550T451 578T489 588L492
592Q476 596 458 606T418 636T384 686T365 757T371 854L446 1214Q484 1376 381 1376H270L297 1499H440Q520 1499 572 1429T600 1243L524 883Q503 781 543 716T651 651Z" />
<glyph unicode="~" glyph-name="asciitilde" horiz-adv-x="1363" d="M1192 664Q1157 627 1141 611T1090 564T1030 521T968 495T895 483Q861 483 823 493T765 513T700 545Q690 550 651 570T594 598T545 614T481 623Q373 623 279 479L231 578Q271 621 295 644T359
698T440 744T526 758Q561 758 598 748T659 727T721 696Q736 689 771 671T826 644T877 627T940 618Q1047 618 1145 762L1192 664Z" />
</font>
</defs>
</svg>
